<?xml version="1.0" encoding="UTF-8" standalone="no"?>
<!-- Generator: Adobe Illustrator 19.2.0, SVG Export Plug-In . SVG Version: 6.00 Build 0)  -->

<svg
   xmlns:dc="http://purl.org/dc/elements/1.1/"
   xmlns:cc="http://creativecommons.org/ns#"
   xmlns:rdf="http://www.w3.org/1999/02/22-rdf-syntax-ns#"
   xmlns:svg="http://www.w3.org/2000/svg"
   xmlns="http://www.w3.org/2000/svg"
   xmlns:sodipodi="http://sodipodi.sourceforge.net/DTD/sodipodi-0.dtd"
   xmlns:inkscape="http://www.inkscape.org/namespaces/inkscape"
   version="1.1"
   id="Layer_1"
   x="0px"
   y="0px"
   viewBox="0 0 47.8 47.8"
   xml:space="preserve"
   sodipodi:docname="pflow-3.svg"
   inkscape:version="0.92.5 (2060ec1f9f, 2020-04-08)"
   style="enable-background:new 0 0 194.9 47.8;"
   inkscape:export-filename="/home/ork/Pictures/bitwrap-assets/pflow-3.png"
   inkscape:export-xdpi="313.81"
   inkscape:export-ydpi="313.81"><metadata
   id="metadata3936"><rdf:RDF><cc:Work
       rdf:about=""><dc:format>image/svg+xml</dc:format><dc:type
         rdf:resource="http://purl.org/dc/dcmitype/StillImage" /><dc:title /></cc:Work></rdf:RDF></metadata><defs
   id="defs3934"><linearGradient
     id="coin-gradient"
     x1="0.0004394635"
     y1="-0.00059563987"
     x2="0.0004394635"
     y2="63.996323"
     gradientTransform="scale(0.99994167,1.0000583)"
     gradientUnits="userSpaceOnUse"><stop
       offset="0%"
       style="stop-color:#f9aa4b"
       id="stop12" /><stop
       offset="100%"
       style="stop-color:#f7931a"
       id="stop14" /></linearGradient></defs><sodipodi:namedview
   pagecolor="#ffffff"
   bordercolor="#666666"
   borderopacity="1"
   objecttolerance="10"
   gridtolerance="10"
   guidetolerance="10"
   inkscape:pageopacity="0"
   inkscape:pageshadow="2"
   inkscape:window-width="1920"
   inkscape:window-height="1043"
   id="namedview3932"
   showgrid="false"
   inkscape:zoom="14.630307"
   inkscape:cx="14.160512"
   inkscape:cy="22.429641"
   inkscape:window-x="0"
   inkscape:window-y="0"
   inkscape:window-maximized="1"
   inkscape:current-layer="Layer_1"
   inkscape:snap-text-baseline="true" />



<path
   style="fill:#8bb4cc;fill-opacity:1;stroke:#999999;stroke-width:0.13029177;stroke-miterlimit:4;stroke-dasharray:none;stroke-opacity:1"
   d="M 24.231338,4.5260149 A 19.931237,19.487046 0 0 0 4.2995172,24.014495 19.931237,19.487046 0 0 0 13.137934,40.195267 l -0.713694,-27.836678 4.518875,-0.07541 0.05873,2.393968 c 0.420944,-0.358348 0.329018,-0.673088 2.614506,-1.880098 1.432124,-0.708759 3.741637,-0.966953 5.745148,-1.001433 3.322888,-0.0572 6.361624,0.767134 8.489579,3.039375 2.144228,2.27196 3.26362,5.287031 3.360235,9.047973 0.09662,3.760941 -0.868274,6.81297 -2.893932,9.15671 -2.009382,2.343458 -4.673692,3.545156 -7.996577,3.602352 -2.003512,0.03449 -3.74181,-0.286242 -5.209433,-0.959341 -1.450967,-0.659136 -3.707674,-2.113416 -3.645001,-2.695626 l 0.101447,9.367169 a 19.931237,19.487046 0 0 0 6.663518,1.147 A 19.931237,19.487046 0 0 0 44.16138,24.014495 19.931237,19.487046 0 0 0 24.231338,4.5260149 Z m 0.427149,10.2949401 c -2.378149,0.04094 -4.228542,0.893481 -5.554712,2.55532 -1.309504,1.675809 -1.92527,3.956741 -1.850977,6.84868 0.0743,2.891933 0.980195,5.147724 2.374234,6.762741 0.640004,0.583378 1.281439,1.06048 1.934627,1.452165 v -7.311688 h -2.030735 v -1.392535 h 2.030735 v -0.757651 c 0,-1.21359 0.332807,-2.096642 1.00202,-2.648273 0.669212,-0.558122 1.732011,-0.838328 3.185816,-0.838328 h 2.005819 v 1.490749 h -2.030735 c -0.761516,0 -1.291137,0.129758 -1.591129,0.389349 -0.292299,0.259593 -0.439607,0.726367 -0.439607,1.401305 v 0.962849 h 3.495499 v 1.392535 h -3.495499 v 8.223676 c 0.786432,0.202502 1.607242,0.282414 2.486361,0.217475 1.856138,-0.06942 3.841186,-0.90056 5.150699,-2.576366 1.326161,-1.66184 2.019599,-4.165451 1.945306,-7.057384 -0.0743,-2.891938 -0.920823,-5.26705 -2.331519,-6.896033 -1.394053,-1.615017 -3.908051,-2.259525 -6.286203,-2.218586 z m 0.446726,11.136777 h 0.377315 v 3.072697 h -0.377315 z m 2.059212,0.806758 c 0.328306,0 0.586804,0.101416 0.774207,0.306919 0.187408,0.205499 0.281206,0.490533 0.281206,0.854112 0,0.362261 -0.09381,0.647294 -0.281206,0.854112 -0.187406,0.205501 -0.445901,0.308673 -0.774207,0.308673 -0.329673,0 -0.588581,-0.10317 -0.775987,-0.308673 -0.18604,-0.206818 -0.277646,-0.491851 -0.277646,-0.854112 0,-0.363579 0.0916,-0.648613 0.277646,-0.854112 0.187406,-0.205502 0.446314,-0.306919 0.775987,-0.306919 z m 1.459424,0.05437 h 0.377315 l 0.473423,1.725762 0.469863,-1.725762 h 0.446726 l 0.469865,1.725762 0.469862,-1.725762 h 0.379095 l -0.601567,2.211571 h -0.444947 l -0.49478,-1.813452 -0.49834,1.813452 h -0.443167 z m -1.459424,0.252551 c -0.202456,0 -0.362901,0.07695 -0.480542,0.229751 -0.117643,0.151492 -0.177978,0.359582 -0.177978,0.624361 0,0.26478 0.05814,0.473308 0.174419,0.626115 0.117641,0.151491 0.280278,0.227997 0.484101,0.227997 0.201087,0 0.361121,-0.07694 0.478763,-0.229751 0.117642,-0.152807 0.174419,-0.360898 0.174419,-0.624361 0,-0.262144 -0.05677,-0.468044 -0.174419,-0.620853 -0.117642,-0.154125 -0.277676,-0.233259 -0.478763,-0.233259 z"
   id="coin"
   inkscape:connector-curvature="0" /></svg>